<svg width="74" height="74" viewBox="0 0 74 74" fill="none" xmlns="http://www.w3.org/2000/svg">
<g clip-path="url(#clip0_132_170)">
<path d="M26.3047 74.5781C33.1844 74.5781 38.7344 69.0281 38.7344 62.1484V49.7188H26.3047C19.425 49.7188 13.875 55.2688 13.875 62.1484C13.875 69.0281 19.425 74.5781 26.3047 74.5781ZM13.875 37.2891C13.875 30.4094 19.425 24.8594 26.3047 24.8594H38.7344V49.7188H26.3047C19.425 49.7188 13.875 44.1687 13.875 37.2891ZM13.875 12.4297C13.875 5.55 19.425 0 26.3047 0H38.7344V24.8594H26.3047C19.425 24.8594 13.875 19.3094 13.875 12.4297ZM38.7344 0H51.1641C58.0437 0 63.5938 5.55 63.5938 12.4297C63.5938 19.3094 58.0437 24.8594 51.1641 24.8594H38.7344V0ZM63.5938 37.2891C63.5938 44.1687 58.0437 49.7188 51.1641 49.7188C44.2844 49.7188 38.7344 44.1687 38.7344 37.2891C38.7344 30.4094 44.2844 24.8594 51.1641 24.8594C58.0437 24.8594 63.5938 30.4094 63.5938 37.2891Z" fill="white"/>
</g>
<defs>
<clipPath id="clip0_132_170">
<rect width="74" height="74" fill="white"/>
</clipPath>
</defs>
</svg>
