<svg width="74" height="74" viewBox="0 0 74 74" fill="none" xmlns="http://www.w3.org/2000/svg">
<path d="M64.38 9.55524C62.1199 7.29516 59.4004 6.16666 56.2184 6.16666H17.7168C14.5348 6.16666 11.8153 7.29516 9.55521 9.55524C7.29513 11.8153 6.16663 14.5348 6.16663 17.7168V56.2184C6.16663 59.4004 7.29513 62.1199 9.55521 64.38C11.8153 66.6401 14.5348 67.7686 17.7168 67.7686H26.7016C27.2875 67.7686 27.7284 67.747 28.0244 67.7069C28.3688 67.6379 28.6796 67.4542 28.9062 67.1858C29.1991 66.8775 29.3471 66.4304 29.3471 65.8446L29.3255 63.1158C29.3132 61.3768 29.307 60.0017 29.307 58.9842L28.382 59.1445C27.7962 59.2524 27.0562 59.2987 26.159 59.2863C25.2237 59.2691 24.2915 59.1752 23.3716 59.0057C22.3924 58.8249 21.4705 58.4126 20.683 57.8032C19.8581 57.1793 19.243 56.3189 18.9193 55.3366L18.5185 54.4116C18.1806 53.6819 17.7562 52.9956 17.2543 52.3673C16.6808 51.6181 16.098 51.1124 15.5091 50.8442L15.2316 50.6437C15.0381 50.5052 14.8621 50.3436 14.7075 50.1627C14.5597 49.9948 14.4381 49.8057 14.3467 49.6016C14.2665 49.4135 14.3344 49.2593 14.5471 49.1391C14.763 49.0157 15.1484 48.9572 15.7126 48.9572L16.5143 49.0805C17.0477 49.1853 17.7106 49.506 18.4969 50.0394C19.2926 50.5819 19.9572 51.295 20.4425 52.1268C21.0591 53.2214 21.7991 54.057 22.6686 54.6336C23.5381 55.2071 24.4138 55.4969 25.2956 55.4969C26.1775 55.4969 26.939 55.4291 27.5835 55.2965C28.2066 55.1676 28.8122 54.9647 29.3872 54.6922C29.6277 52.9038 30.2814 51.5225 31.3513 50.5605C29.9649 50.4246 28.591 50.1834 27.2412 49.839C25.924 49.4771 24.6572 48.952 23.4703 48.2757C22.2285 47.5997 21.1316 46.6861 20.242 45.5871C19.388 44.5172 18.685 43.1142 18.1361 41.3783C17.5904 39.6393 17.316 37.6321 17.316 35.3597C17.316 32.1252 18.3705 29.3718 20.4825 27.0963C19.4959 24.6667 19.5884 21.9379 20.7631 18.9193C21.5401 18.6757 22.6902 18.8577 24.2134 19.4589C25.7365 20.0602 26.8527 20.5751 27.5619 21.0006C28.271 21.4322 28.8384 21.793 29.267 22.0859C31.7736 21.3883 34.3641 21.0377 36.966 21.0437C39.6146 21.0437 42.18 21.3922 44.6682 22.0859L46.1914 21.1239C47.363 20.4205 48.5988 19.8299 49.8821 19.3602C51.3005 18.8237 52.3796 18.6788 53.132 18.9193C54.3345 21.941 54.4393 24.6667 53.4495 27.0994C55.5616 29.3718 56.6192 32.1252 56.6192 35.3627C56.6192 37.6352 56.3448 39.6486 55.796 41.3968C55.2502 43.1482 54.541 44.5511 53.6715 45.6087C52.7663 46.6936 51.6649 47.5984 50.4248 48.2757C49.1298 48.9972 47.8718 49.5183 46.6539 49.839C45.3042 50.1845 43.9302 50.4267 42.5438 50.5636C43.9313 51.7661 44.6281 53.6623 44.6281 56.2554V65.8446C44.6281 66.2978 44.6929 66.6647 44.8285 66.9453C44.8909 67.0805 44.9798 67.2018 45.09 67.3019C45.2002 67.402 45.3294 67.4789 45.4699 67.5281C45.7659 67.6329 46.0249 67.7007 46.253 67.7254C46.4812 67.7562 46.808 67.7655 47.2335 67.7655H56.2184C59.4004 67.7655 62.1199 66.637 64.38 64.3769C66.637 62.1199 67.7685 59.3973 67.7685 56.2153V17.7168C67.7685 14.5348 66.64 11.8153 64.38 9.55524Z" fill="white"/>
</svg>
