<svg width="74" height="74" viewBox="0 0 74 74" fill="none" xmlns="http://www.w3.org/2000/svg">
<path d="M66.0714 0H7.92857C3.55134 0 0 3.55134 0 7.92857V66.0714C0 70.4487 3.55134 74 7.92857 74H66.0714C70.4487 74 74 70.4487 74 66.0714V7.92857C74 3.55134 70.4487 0 66.0714 0ZM40.2705 57.7134C40.2705 64.9152 36.042 68.2022 29.8808 68.2022C24.3143 68.2022 21.0933 65.3281 19.4415 61.8429L25.1071 58.4237C26.1973 60.3563 27.1884 61.9915 29.5835 61.9915C31.8629 61.9915 33.3165 61.0996 33.3165 57.6143V33.9772H40.2705V57.7134ZM56.7223 68.2022C50.2638 68.2022 46.0848 65.1299 44.0531 61.0995L49.7188 57.829C51.2054 60.2571 53.1545 62.0576 56.5737 62.0576C59.4478 62.0576 61.2978 60.6205 61.2978 58.6219C61.2978 56.2433 59.4147 55.4009 56.2268 53.9969L54.4924 53.2536C49.471 51.1228 46.1509 48.4304 46.1509 42.7647C46.1509 37.5451 50.1317 33.5808 56.3259 33.5808C60.7527 33.5808 63.9241 35.117 66.2036 39.1473L60.7857 42.6161C59.5964 40.4853 58.308 39.6429 56.3094 39.6429C54.2777 39.6429 52.9893 40.9313 52.9893 42.6161C52.9893 44.6973 54.2777 45.5397 57.2674 46.8446L59.0018 47.5879C64.9152 50.1152 68.2353 52.7085 68.2353 58.5228C68.2353 64.7665 63.3129 68.2022 56.7223 68.2022Z" fill="white"/>
</svg>
