<svg width="72" height="72" viewBox="0 0 72 72" fill="none" xmlns="http://www.w3.org/2000/svg">
<g clip-path="url(#clip0_132_172)">
<path d="M13.377 12.624C15.615 14.442 16.455 14.304 20.661 14.022L60.306 11.643C61.146 11.643 60.447 10.803 60.168 10.665L53.58 5.90399C52.32 4.92599 50.637 3.80399 47.415 4.08299L9.03004 6.88499C7.63204 7.02299 7.35004 7.72499 7.90804 8.28299L13.377 12.624ZM15.756 21.864V63.576C15.756 65.817 16.875 66.657 19.398 66.516L62.967 63.996C65.49 63.858 65.772 62.316 65.772 60.495V19.062C65.772 17.244 65.073 16.263 63.528 16.401L17.997 19.062C16.317 19.203 15.756 20.046 15.756 21.864ZM58.767 24.099C59.046 25.359 58.767 26.619 57.507 26.763L55.407 27.183V57.975C53.583 58.956 51.903 59.517 50.502 59.517C48.258 59.517 47.697 58.815 46.017 56.718L32.286 35.16V56.016L36.63 57C36.63 57 36.63 59.52 33.126 59.52L23.46 60.078C23.181 59.52 23.46 58.119 24.441 57.84L26.961 57.141V29.562L23.466 29.28C23.184 28.02 23.886 26.202 25.845 26.061L36.213 25.362L50.505 47.199V27.879L46.86 27.462C46.581 25.92 47.7 24.801 49.101 24.663L58.767 24.099ZM5.80804 3.10499L45.738 0.164988C50.64 -0.255012 51.903 0.0239882 54.984 2.26499L67.731 11.223C69.831 12.762 70.533 13.182 70.533 14.862V63.996C70.533 67.074 69.414 68.898 65.493 69.174L19.119 71.976C16.179 72.117 14.775 71.697 13.233 69.735L3.84604 57.555C2.16604 55.314 1.46704 53.637 1.46704 51.675V8.00099C1.46704 5.48399 2.58904 3.38099 5.80804 3.10499Z" fill="white"/>
</g>
<defs>
<clipPath id="clip0_132_172">
<rect width="72" height="72" fill="white"/>
</clipPath>
</defs>
</svg>
