<svg width="74" height="74" viewBox="0 0 74 74" fill="none" xmlns="http://www.w3.org/2000/svg">
<path d="M36.9999 43.5906C40.6398 43.5906 43.5906 40.6399 43.5906 37C43.5906 33.3601 40.6398 30.4094 36.9999 30.4094C33.36 30.4094 30.4093 33.3601 30.4093 37C30.4093 40.6399 33.36 43.5906 36.9999 43.5906Z" fill="white"/>
<path d="M62.0328 26.1312C60.7609 25.6687 59.4312 25.2062 58.0437 24.8016C58.3906 23.4141 58.6796 22.0266 58.9109 20.6969C60.125 13.0656 58.7953 7.68905 55.0953 5.6078C53.9968 4.97186 52.7828 4.6828 51.3953 4.6828C47.3484 4.6828 42.2031 7.68905 37 12.7187C31.7968 7.68905 26.6515 4.6828 22.6046 4.6828C21.2171 4.6828 20.0031 4.97186 18.9046 5.6078C15.2046 7.74686 13.875 13.1234 15.089 20.6969C15.3203 22.0266 15.6093 23.4141 15.9562 24.8016C14.5687 25.2062 13.239 25.6109 11.9671 26.1312C4.74058 28.9062 0.809326 32.7219 0.809326 37C0.809326 41.2781 4.79839 45.0937 11.9671 47.8687C13.239 48.3312 14.5687 48.7937 15.9562 49.1984C15.6093 50.5859 15.3203 51.9734 15.089 53.3031C13.875 60.9344 15.2046 66.3109 18.9046 68.3922C20.0031 69.0281 21.2171 69.3172 22.6046 69.3172C26.7093 69.3172 31.8546 66.3109 37 61.2812C42.2031 66.3109 47.3484 69.3172 51.3953 69.3172C52.7828 69.3172 53.9968 69.0281 55.0953 68.3922C58.7953 66.2531 60.125 60.8765 58.9109 53.3031C58.6796 51.9734 58.3906 50.5859 58.0437 49.1984C59.4312 48.7937 60.7609 48.3891 62.0328 47.8687C69.2593 45.0937 73.1906 41.2781 73.1906 37C73.1906 32.7219 69.2593 28.9062 62.0328 26.1312ZM53.4765 8.49843C55.8468 9.88592 56.6562 14.1641 55.6734 20.2344C55.5 21.4484 55.2109 22.7203 54.864 24.05C51.8578 23.3562 48.6781 22.8937 45.325 22.6047C43.3593 19.8297 41.3359 17.3437 39.3125 15.0891C43.5906 10.8687 47.9265 7.97811 51.4531 7.97811C52.2046 7.97811 52.8984 8.15155 53.4765 8.49843ZM47.0015 42.7812C45.9609 44.6312 44.7468 46.4812 43.4749 48.3312C41.3359 48.5047 39.1968 48.5625 37 48.5625C34.7453 48.5625 32.6062 48.5047 30.525 48.3312C29.2531 46.4812 28.0968 44.6312 27.0562 42.7812C25.9578 40.8734 24.9171 38.9078 23.9921 37C24.9171 35.0922 25.9578 33.1266 27.0562 31.2187C28.0968 29.3687 29.3109 27.5187 30.5828 25.6687C32.7218 25.4953 34.8609 25.4375 37.0578 25.4375C39.3125 25.4375 41.4515 25.4953 43.5328 25.6687C44.8046 27.5187 45.9609 29.3687 47.0015 31.2187C48.1 33.1266 49.1406 35.0922 50.0656 37C49.0828 38.9078 48.1 40.8156 47.0015 42.7812ZM51.7999 40.8734C52.6671 42.8969 53.3609 44.8625 53.9968 46.8281C52.0312 47.2906 49.95 47.6375 47.7531 47.9266C48.4468 46.8281 49.1984 45.6719 49.8343 44.4578C50.5281 43.2437 51.164 42.0297 51.7999 40.8734ZM37 56.5406C35.6124 55.0375 34.2828 53.4187 33.0109 51.7422C34.3406 51.8 35.6703 51.8578 37 51.8578C38.3296 51.8578 39.6593 51.8 40.989 51.7422C39.7171 53.4187 38.3875 55.0375 37 56.5406ZM26.2468 47.8687C24.05 47.5797 21.9687 47.2328 20.0031 46.7703C20.639 44.8625 21.3328 42.8391 22.2 40.8156C22.8359 41.9719 23.4718 43.1859 24.1656 44.3422C24.8593 45.614 25.5531 46.7125 26.2468 47.8687ZM22.2 33.1265C21.3328 31.1031 20.639 29.1375 20.0031 27.1719C21.9687 26.7094 24.05 26.3625 26.2468 26.0734C25.5531 27.1719 24.8015 28.3281 24.1656 29.5422C23.4718 30.7562 22.8359 31.9703 22.2 33.1265ZM37 17.4594C38.3875 18.9625 39.7171 20.5812 40.989 22.2578C39.6593 22.2 38.3296 22.1422 37 22.1422C35.6703 22.1422 34.3406 22.2 33.0109 22.2578C34.2828 20.5812 35.6124 18.9625 37 17.4594ZM49.8343 29.6L47.7531 26.1312C49.95 26.4203 52.0312 26.7672 53.9968 27.2297C53.3609 29.1375 52.6671 31.1609 51.7999 33.1844C51.164 31.9703 50.5281 30.7562 49.8343 29.6ZM18.3265 20.2344C17.3437 14.1641 18.1531 9.88592 20.5234 8.49843C21.1015 8.15155 21.7953 7.97811 22.5468 7.97811C26.0156 7.97811 30.3515 10.8109 34.6875 15.0891C32.664 17.2859 30.6406 19.8297 28.6749 22.6047C25.3218 22.8937 22.1421 23.4141 19.1359 24.05C18.789 22.7203 18.5578 21.4484 18.3265 20.2344ZM4.04683 37C4.04683 34.2828 7.34214 31.3922 13.1234 29.2531C14.2796 28.7906 15.5515 28.3859 16.8234 28.0391C17.7484 30.9297 18.9046 33.9937 20.2921 37.0578C18.9046 40.1219 17.6906 43.1281 16.8234 46.0187C8.84526 43.7062 4.04683 40.2375 4.04683 37ZM20.5234 65.5016C18.1531 64.1141 17.3437 59.8359 18.3265 53.7656C18.5 52.5516 18.789 51.2797 19.1359 49.95C22.1421 50.6437 25.3218 51.1062 28.6749 51.3953C30.6406 54.1703 32.664 56.6562 34.6875 58.9109C30.4093 63.1312 26.0734 66.0219 22.5468 66.0219C21.7953 66.0219 21.1015 65.8484 20.5234 65.5016ZM55.6734 53.7656C56.6562 59.8359 55.8468 64.1141 53.4765 65.5016C52.8984 65.8484 52.2046 66.0219 51.4531 66.0219C47.9843 66.0219 43.6484 63.1891 39.3125 58.9109C41.3359 56.7141 43.3593 54.1703 45.325 51.3953C48.6781 51.1062 51.8578 50.5859 54.864 49.95C55.2109 51.2797 55.4421 52.5516 55.6734 53.7656ZM60.8765 44.7469C59.7203 45.2094 58.4484 45.6141 57.1765 45.9609C56.2515 43.0703 55.0953 40.0062 53.7078 36.9422C55.0953 33.8781 56.3093 30.8719 57.1765 27.9812C65.1546 30.2937 69.9531 33.7625 69.9531 37C69.9531 39.7172 66.6 42.6078 60.8765 44.7469Z" fill="white"/>
</svg>
