<svg width="74" height="74" viewBox="0 0 74 74" fill="none" xmlns="http://www.w3.org/2000/svg">
<path fill-rule="evenodd" clip-rule="evenodd" d="M16.7615 12.4756C16.052 15.4525 16.2877 19.5523 17.3852 24.8976C17.4238 25.086 17.4796 25.2704 17.5519 25.4484C15.554 25.9764 13.7707 26.5653 12.2003 27.2179C8.40198 28.7954 5.73564 30.7874 4.28554 33.313C3.40641 34.8444 3.08774 36.4771 3.41432 38.1049C3.72404 39.6471 4.58025 41.0402 5.89182 42.2915C8.09595 44.3948 11.7367 46.235 16.878 47.9466C17.0925 48.0181 17.3141 48.0657 17.539 48.0886C16.9749 50.1457 16.578 52.0393 16.3491 53.7723C15.8076 57.8761 16.1906 61.1996 17.6433 63.7288C18.5237 65.2613 19.7713 66.3557 21.3373 66.8848C22.8206 67.3864 24.4495 67.3372 26.1846 66.8203C29.1027 65.9512 32.5144 63.6979 36.5666 60.0705C36.7781 59.8814 36.9628 59.6641 37.1154 59.4245C38.5653 60.8982 39.9606 62.1551 41.3048 63.1963C44.5648 65.7214 47.6154 67.0507 50.5174 67.0507C52.2765 67.0507 53.8422 66.5107 55.0803 65.4105C56.2533 64.3682 57.0247 62.9238 57.4466 61.1533C58.1559 58.1764 57.9204 54.0765 56.823 48.7312C56.7774 48.509 56.709 48.2971 56.621 48.0976C58.5491 47.5815 60.275 47.0077 61.7999 46.3741C65.5981 44.7964 68.2645 42.8047 69.7146 40.2788C70.5937 38.7474 70.9124 37.1149 70.5858 35.4872C70.2761 33.9449 69.4199 32.5519 68.1083 31.3006C65.9042 29.1972 62.2634 27.3571 57.1222 25.6455C56.9225 25.5791 56.7208 25.5341 56.5196 25.5098C57.0529 23.5355 57.4303 21.7136 57.651 20.0409C58.1925 15.9371 57.8096 12.6137 56.3568 10.0844C55.4764 8.55191 54.2288 7.4575 52.6628 6.92842C51.1795 6.42685 49.5506 6.47606 47.8155 6.99297C44.8974 7.86172 41.4857 10.1156 37.4336 13.7425C37.2898 13.8713 37.161 14.0105 37.0467 14.1578C35.6134 12.7041 34.2334 11.4627 32.9034 10.4325C29.6434 7.90749 26.5925 6.57817 23.6908 6.57817C21.9315 6.57817 20.366 7.1181 19.1276 8.21832C17.9546 9.26062 17.1835 10.705 16.7615 12.4756ZM53.9416 49.4049C53.734 49.2665 53.4813 49.2137 53.2359 49.2574C49.9485 49.8426 46.7947 50.2558 43.7747 50.4973C41.216 50.7018 38.5821 50.7968 35.8726 50.7819L35.5334 50.7796H35.5033C35.3219 50.7837 35.1452 50.8388 34.9934 50.9387C34.8416 51.0387 34.7208 51.1794 34.6446 51.3448C34.5684 51.5103 34.54 51.6939 34.5625 51.8748C34.585 52.0557 34.6576 52.2266 34.772 52.3681C41.2108 60.3313 46.5126 64.313 50.6773 64.313C54.9341 64.313 56.179 59.6467 54.4118 50.3148L54.3573 50.0304L54.3513 50.0008C54.296 49.7567 54.1493 49.5433 53.9416 49.4049ZM24.0181 42.2309L24.0018 42.2031C23.9069 42.0482 23.7707 41.923 23.6087 41.8417C23.4466 41.7605 23.2651 41.7264 23.0848 41.7435C22.9045 41.7605 22.7325 41.8279 22.5883 41.938C22.4442 42.0481 22.3336 42.1966 22.2691 42.3666C18.627 51.9626 17.8614 58.5803 19.9728 62.2196C22.1295 65.938 26.8038 64.7024 33.9955 58.5129L34.2141 58.3237L34.2386 58.3018C34.4219 58.1313 34.5326 57.8964 34.5477 57.646C34.5629 57.3956 34.4813 57.1489 34.32 56.9574C32.1467 54.3765 30.1899 51.8269 28.4495 49.3084C26.972 47.1696 25.5517 44.9099 24.1882 42.5291L24.0181 42.2309ZM56.9146 28.4425L56.8851 28.4327L56.8556 28.424C56.6207 28.3596 56.3703 28.3863 56.1541 28.4988C55.9378 28.6112 55.7716 28.8013 55.6884 29.0311C54.5427 32.1934 53.3168 35.1539 52.0104 37.9118C50.8585 40.3437 49.5635 42.7875 48.126 45.244C48.0326 45.4037 47.9864 45.5867 47.9928 45.7718C47.9992 45.9569 48.058 46.1363 48.1623 46.289C48.2665 46.4417 48.412 46.5614 48.5816 46.6341C48.7511 46.7067 48.9378 46.7294 49.1197 46.6993C59.1569 45.0417 65.2181 42.3957 67.3029 38.762C69.4346 35.0465 66.0622 31.6379 57.1854 28.5362L56.9146 28.4425ZM25.812 27.124C25.7352 27.0219 25.6392 26.9359 25.5293 26.8711C25.3339 26.7555 25.1042 26.7127 24.8804 26.7497C14.8432 28.4073 8.782 31.053 6.69718 34.687C4.56548 38.4022 7.93791 41.8111 16.8147 44.9126L17.0855 45.0065L17.115 45.0163C17.3528 45.0897 17.6096 45.0685 17.8323 44.9571C18.055 44.8458 18.2267 44.6527 18.3117 44.4179C19.4574 41.2553 20.6833 38.2951 21.9896 35.5372C23.1416 33.1053 24.4363 30.6612 25.8743 28.2049C25.9389 28.0946 25.9812 27.9726 25.9988 27.8458C26.0164 27.7191 26.0089 27.5901 25.9769 27.4662C25.9449 27.3424 25.8888 27.2261 25.812 27.124ZM51.731 31.4477C55.3731 21.8517 56.1387 15.234 54.0273 11.5944C51.8706 7.87629 47.1963 9.11196 40.0046 15.3014L39.786 15.4906L39.7615 15.5125C39.5782 15.683 39.4675 15.9179 39.4524 16.1683C39.4372 16.4188 39.5188 16.6654 39.6801 16.8569C41.8534 19.4378 43.8102 21.9874 45.5506 24.5059C47.0281 26.6447 48.4484 28.9044 49.8119 31.2853L49.982 31.5834L49.9983 31.6112C50.0932 31.7662 50.2294 31.8913 50.3914 31.9726C50.5535 32.0538 50.735 32.0879 50.9153 32.0709C51.0956 32.0538 51.2676 31.9865 51.4118 31.8763C51.5559 31.7662 51.6665 31.6177 51.731 31.4477ZM39.5921 21.3242C33.1536 13.361 27.8517 9.37968 23.6868 9.37968C19.4297 9.37968 18.185 14.0457 19.9522 23.3779L20.0068 23.662L20.0131 23.6919C20.0684 23.9359 20.215 24.1492 20.4226 24.2876C20.6302 24.426 20.8828 24.4788 21.1282 24.4352C24.4155 23.8501 27.5694 23.4369 30.5897 23.1953C33.148 22.9908 35.7822 22.8959 38.4915 22.9107L38.8307 22.9128H38.8607C39.0422 22.9087 39.2188 22.8535 39.3707 22.7536C39.5225 22.6537 39.6433 22.513 39.7195 22.3475C39.7957 22.1821 39.8241 21.9985 39.8016 21.8176C39.7791 21.6367 39.7065 21.4658 39.5921 21.3242Z" fill="white"/>
</svg>
