<svg width="74" height="74" viewBox="0 0 74 74" fill="none" xmlns="http://www.w3.org/2000/svg">
<path d="M37.0013 3.60974C40.1398 3.60974 42.6818 6.13474 42.6818 9.25213C42.6818 11.576 41.2644 13.5731 39.2397 14.4392L39.1781 14.465V16.8419C39.1781 19.1364 40.8951 21.0899 43.1791 21.409L43.2484 21.4181L43.9343 21.5069C47.6467 21.9734 50.5242 24.6243 51.2622 28.2674C52.0003 31.9105 50.39 35.4648 47.1472 37.3307C45.6954 38.161 44.1138 38.6689 42.4448 38.8405L42.3613 38.8488L32.0514 39.8113C31.0003 39.9076 30.0088 40.226 29.0919 40.7518C27.2207 41.8254 26.8554 43.6841 27.1387 45.0613C27.4192 46.4249 28.4668 47.977 30.5636 48.2665L31.3133 48.3638C35.83 48.9209 39.2435 52.7221 39.3112 57.231L39.3123 57.3679V59.5745C41.3027 60.4482 42.6967 62.4328 42.6967 64.7356C42.6967 67.8529 40.1546 70.378 37.0162 70.378C33.8778 70.378 31.3357 67.8529 31.3357 64.7356C31.3357 62.4191 32.7458 60.4219 34.7633 59.556L34.8245 59.5301V57.3679C34.8245 55.0734 33.1076 53.12 30.8237 52.8009L30.7543 52.7919L30.0684 52.7029C26.356 52.2365 23.4784 49.5855 22.7404 45.9424C21.995 42.2993 23.6126 38.745 26.8555 36.8791C28.3073 36.0488 29.8888 35.5409 31.5579 35.3694L31.6414 35.3611L41.9513 34.3986C43.0024 34.3022 43.9938 33.9839 44.9108 33.4582C46.7819 32.3844 47.1472 30.5259 46.8639 29.1486C46.5835 27.7851 45.5359 26.2329 43.439 25.9433L42.6893 25.8461C38.1726 25.289 34.7592 21.4878 34.6914 16.9788L34.6903 16.8419V14.4058C32.7074 13.5246 31.3208 11.5475 31.3208 9.25213C31.3208 6.13474 33.863 3.60974 37.0013 3.60974ZM43.8298 41.3664L47.0131 44.8317C49.382 47.4194 50.699 50.7546 50.7251 54.2411L50.7255 54.3468H46.2302C46.2302 51.957 45.3463 49.6688 43.7444 47.8917L43.6957 47.838L38.2836 41.9439L42.6074 41.5367L42.7439 41.5216C43.0678 41.485 43.3912 41.4428 43.7104 41.3877L43.8299 41.3664H43.8298ZM27.3772 19.6927C27.3772 22.0825 28.2613 24.3707 29.8631 26.1478L29.9119 26.2015L35.3389 32.1104L31.3432 32.488L31.2245 32.4989C30.7894 32.5404 30.355 32.603 29.9306 32.6868L29.815 32.7102L26.6019 29.2078C24.233 26.6274 22.916 23.285 22.8899 19.7984L22.8895 19.6927H27.3772Z" fill="white"/>
</svg>
