<svg width="72" height="72" viewBox="0 0 72 72" fill="none" xmlns="http://www.w3.org/2000/svg">
<path fill-rule="evenodd" clip-rule="evenodd" d="M16.875 0H55.125C64.4448 0 72 7.55519 72 16.875V55.125C72 64.4448 64.4448 72 55.125 72H16.875C7.55519 72 0 64.4448 0 55.125V16.875C0 7.55519 7.55519 0 16.875 0ZM50.4293 42.4229C50.501 44.5703 48.9263 46.3598 46.8504 46.5747C42.9134 54.6632 35.9702 60.1034 26.8076 61.8927C25.3761 62.2508 23.9445 62.3939 22.513 62.3939C17.2159 62.3939 12.4203 60.1749 10.0578 56.5959C6.90837 51.8001 5.83484 41.6357 16.2138 34.1196C16.4287 35.2648 16.8582 36.8398 17.1445 37.7702C15.7843 38.7723 13.637 40.7765 12.2769 43.4967C10.3444 47.2905 10.559 51.0843 12.8495 54.5918C14.4245 56.9537 16.9296 58.3855 20.1507 58.815C24.0877 59.3159 28.0246 58.6001 31.8184 56.5959C37.4018 53.6611 41.1238 50.1536 43.5575 45.3578C42.9134 44.7134 42.4839 43.783 42.4122 42.7092C42.3408 40.4902 44.0587 38.6291 46.2777 38.5577H46.4209C48.5682 38.5577 50.3578 40.2756 50.4293 42.4229ZM59.4484 37.6987C54.0085 31.3279 45.9915 27.8207 36.8292 27.8207H35.6839C35.0396 26.532 33.6795 25.6731 32.1765 25.6731H32.0333C29.8142 25.7448 28.0964 27.6058 28.1678 29.8249C28.2395 31.9722 30.0288 33.6901 32.1765 33.6901H32.3196C33.8943 33.6187 35.2545 32.6166 35.8271 31.2564H37.1155C42.5554 31.2564 47.7093 32.8312 52.3621 35.9092C55.9409 38.2714 58.5181 41.3494 59.9496 45.0714C61.1666 48.0777 61.0948 51.0126 59.8065 53.5179C57.8023 57.3117 54.438 59.3876 49.9998 59.3876C47.1367 59.3876 44.4167 58.5287 42.9849 57.8844C42.1977 58.6001 40.7661 59.7454 39.764 60.4612C42.8417 61.8927 45.9915 62.6802 48.9977 62.6802C55.8695 62.6802 60.9517 58.8864 62.8845 55.0927C64.9604 50.9411 64.8172 43.783 59.4484 37.6987ZM27.0943 51.6569C24.9466 51.6569 23.1573 49.939 23.0856 47.7917C23.0139 47.0042 23.2288 46.2167 23.5865 45.7158C19.5781 38.7723 17.4308 29.968 20.7234 20.8058C23.0856 13.934 29.0267 9.28125 35.469 9.28125C42.3408 9.28125 49.4989 15.2944 50.3578 26.89C49.2841 26.5323 47.7093 26.0311 46.7787 25.8162C46.5641 22.0224 43.3429 12.5738 35.7554 12.717C33.0354 12.7887 29.0267 14.0771 26.9511 16.7254C24.4457 19.8036 23.0142 23.526 22.7279 27.8207C22.2984 33.5469 23.5151 38.844 26.4502 43.7116C26.5931 43.6399 26.808 43.6399 26.9508 43.6399H27.0943C29.2416 43.6399 31.0312 45.3577 31.1026 47.5051C31.1744 49.7242 29.4562 51.5852 27.2374 51.6569H27.0943Z" fill="white"/>
</svg>
