<svg width="74" height="74" viewBox="0 0 74 74" fill="none" xmlns="http://www.w3.org/2000/svg">
<path d="M49.9932 20.8495L49.7619 22.0551C49.4042 24.3398 49.5337 24.9935 50.5142 25.8414L51.4608 26.6246L50.4803 30.9967C49.8945 33.6052 49.1761 35.7913 48.7197 36.5097C48.3282 37.1295 47.8718 38.0422 47.7732 38.5324C47.6097 39.1182 47.0547 39.7072 46.2068 40.2282C45.4576 40.6537 43.9868 41.7946 42.9447 42.7103C42.1122 43.4596 41.5387 43.919 41.2272 44.1163L40.2098 44.9211C39.9481 45.3091 39.7513 45.7371 39.627 46.1883C39.5561 46.5182 39.5962 46.7372 39.701 46.8975C39.8027 47.0517 39.9785 47.1596 40.219 47.2274C40.5037 47.2941 40.7968 47.318 41.0885 47.2983C41.7485 47.2532 42.4018 47.1375 43.0372 46.953C43.253 46.8944 43.4226 46.8389 43.5706 46.7896C43.7987 46.509 44.326 45.9787 45.2603 45.0567C47.7393 42.6117 48.6858 41.2735 47.7084 41.6342C47.3477 41.7637 47.5111 41.4369 48.1308 40.7832C49.4382 39.5098 50.1874 37.5858 51.7537 31.5517C52.9932 26.788 52.9932 26.7202 53.9059 26.7202C54.3345 26.7202 55.5462 26.7942 55.5462 26.7942V20.8495H52.7651H49.9932ZM61.8301 30.6082C61.6327 30.6082 61.3059 30.9042 61.1117 31.2311C60.754 31.8169 61.1764 32.1746 66.5599 35.5354C69.7573 37.5612 72.335 39.2878 72.2702 39.4204C72.2055 39.516 69.5939 41.2149 66.4643 43.1728C60.7848 46.694 60.754 46.7279 61.2751 47.4463C61.9287 48.2942 61.2751 48.5872 68.6473 43.9868L74 40.5612V37.9836L68.0276 34.2959C64.7993 32.2732 61.9935 30.6422 61.8301 30.6082ZM12.2347 30.969C12.0712 30.969 9.26542 32.634 6.03717 34.6227L0 38.3104V40.8881L6.00325 44.6405C9.33325 46.694 12.1391 48.3929 12.2686 48.3929C12.3981 48.3929 12.6602 48.0969 12.9222 47.7392C13.3138 47.1195 12.9839 46.8574 7.47092 43.3671C2.22 40.071 1.665 39.6147 2.18917 39.257C2.516 39.0288 4.995 37.4933 7.67133 35.8314C13.7732 32.079 13.4464 32.338 12.9562 31.5548C12.7619 31.2311 12.432 30.9382 12.2378 30.969H12.2347ZM39.0103 31.0399C38.11 31.0337 36.1737 32.4058 30.377 37.1387C30.1273 37.7338 30.1057 38.1439 30.2197 38.4091C30.2937 38.591 30.4294 38.7174 30.6175 38.8099C30.8025 38.9024 31.043 38.9579 31.3082 38.9795C31.8354 39.0257 32.4582 38.9425 32.9608 38.8438L33.3 38.7667C33.4161 38.611 33.5685 38.4861 33.744 38.4029C34.1017 38.2056 35.6032 36.8366 37.1048 35.3689C39.7472 32.6926 40.367 31.4839 39.2909 31.0923C39.2026 31.0572 39.1053 31.0394 39.0103 31.0399ZM45.7813 32.8992C44.9889 32.9207 43.5613 33.8396 41.1162 35.7913C39.8891 36.7872 39.1121 37.3237 38.6958 37.4347L37.0802 38.7112C36.4727 39.8212 36.3833 40.5088 36.5437 40.8881C36.5838 40.9816 36.6421 41.0663 36.7151 41.1372C36.7881 41.2081 36.8745 41.2639 36.9692 41.3012C37.2047 41.3943 37.4559 41.4414 37.7092 41.44C38.3144 41.4335 38.9159 41.3454 39.4975 41.1779C39.8006 41.0966 40.1 41.0019 40.3947 40.8942L40.4842 40.8572L40.6476 40.7709C40.9559 40.3732 41.6651 39.6239 42.5531 38.7606C45.3589 36.0534 46.7927 34.1294 46.4997 33.411C46.3672 33.0626 46.139 32.8868 45.7813 32.8992ZM38.3073 36.2292C38.0792 36.2538 37.5673 36.6485 36.6454 37.4563C35.3134 38.6342 33.8612 39.3125 33.3586 39.0103C33.2418 39.0367 33.1246 39.0614 33.0071 39.0843C32.4953 39.1861 31.857 39.2693 31.2866 39.2231C31.0178 39.2068 30.7544 39.1409 30.5096 39.0288C30.2787 38.9233 30.0944 38.7368 29.9916 38.5047C29.8775 38.2272 29.8775 37.8818 30.007 37.4409L28.0028 39.0874L23.4672 42.8398V48.9232L38.3289 37.2158C38.326 37.0876 38.3427 36.9598 38.3782 36.8366C38.4923 36.4234 38.4862 36.2137 38.3073 36.2322V36.2292ZM44.7022 38.1994C44.4771 38.1994 44.1009 38.517 43.4997 39.1552C42.6826 40.0278 41.3968 40.8727 40.7154 41.0453L40.6106 41.1008C40.4987 41.147 40.3856 41.1902 40.2714 41.2303C40.0864 41.292 39.8459 41.366 39.5684 41.44C39.0134 41.5911 38.3228 41.7298 37.7061 41.7144C37.4154 41.714 37.1274 41.6575 36.8582 41.5479C36.6044 41.4433 36.401 41.2444 36.2908 40.9929C36.112 40.5643 36.1829 39.9631 36.5745 39.109L23.4642 49.4351V53.1505H29.2238L41.44 43.5552C41.7576 43.2037 42.2355 42.7227 42.8799 42.1214C44.6066 40.5212 44.9982 39.9692 44.9982 39.1522C44.9982 38.517 44.9272 38.1963 44.7022 38.1963V38.1994ZM47.6097 44.2119L46.5645 45.2541C45.9787 45.8091 44.9334 46.4936 44.2181 46.7865L44.0762 46.8482L44.067 46.8636L44.0362 46.8944C44.0084 46.916 43.9961 46.9191 43.9745 46.9283C43.6889 47.0364 43.3988 47.1321 43.105 47.2151C42.4517 47.4052 41.7797 47.5241 41.1008 47.5697C40.7798 47.5902 40.4576 47.5622 40.145 47.4864C39.8737 47.4267 39.6342 47.2685 39.4728 47.0424C39.3248 46.8142 39.2817 46.509 39.3649 46.1328C39.4311 45.865 39.5295 45.6062 39.6578 45.362L29.8004 53.1505H42.9107L44.4771 51.356C46.6292 48.8462 47.6097 47.0517 47.6097 45.5162V44.2119Z" fill="white"/>
</svg>
