<svg width="74" height="74" viewBox="0 0 74 74" fill="none" xmlns="http://www.w3.org/2000/svg">
<path fill-rule="evenodd" clip-rule="evenodd" d="M17.3438 0H56.6562C66.2349 0 74 7.76506 74 17.3438V56.6562C74 66.2349 66.2349 74 56.6562 74H17.3438C7.76506 74 0 66.2349 0 56.6562V17.3438C0 7.76506 7.76506 0 17.3438 0ZM37 21.3906C30.0628 21.3906 25.7266 24.8594 23.9922 31.7969C26.5938 28.3281 29.6286 27.0273 33.0977 27.8945C35.0768 28.3893 36.4913 29.8251 38.0571 31.4145C40.6078 34.0035 43.5599 37 50.0078 37C56.945 37 61.2815 33.531 63.0156 26.5938C60.4141 30.0628 57.3792 31.3636 53.9102 30.4961C51.931 30.0013 50.5165 28.5655 48.9507 26.9761C46.4 24.3871 43.448 21.3906 37 21.3906ZM23.9922 37C17.0547 37 12.7188 40.469 10.9844 47.4062C13.5859 43.9372 16.6211 42.6364 20.0898 43.5039C22.069 43.9987 23.4835 45.4345 25.0493 47.0239C27.6 49.6129 30.552 52.6094 37 52.6094C43.9372 52.6094 48.2737 49.1403 50.0078 42.2031C47.4062 45.6722 44.3714 46.9729 40.9023 46.1055C38.9232 45.6107 37.5087 44.1749 35.9429 42.5855C33.3922 39.9965 30.4401 37 23.9922 37Z" fill="white"/>
</svg>
