<svg width="74" height="74" viewBox="0 0 74 74" fill="none" xmlns="http://www.w3.org/2000/svg">
<g clip-path="url(#clip0_128_742)">
<path d="M3.46875 0C1.54783 0 0 1.54783 0 3.46875V70.5312C0 72.4522 1.54783 74 3.46875 74H70.5312C72.4522 74 74 72.4522 74 70.5312V3.46875C74 1.54783 72.4522 0 70.5312 0H3.46875ZM57.0047 30.0625C58.8917 30.0625 60.5628 30.1766 62.0212 30.4047C63.3968 30.6108 64.7466 30.9623 66.0481 31.4531V39.0319C65.4234 38.5999 64.7596 38.2272 64.0655 37.9188C63.3497 37.5967 62.6107 37.3288 61.8548 37.1172C60.4228 36.7182 58.9443 36.5108 57.4579 36.5005C56.5329 36.5005 55.6912 36.5868 54.9327 36.7657C54.2566 36.9102 53.6081 37.1622 53.0117 37.5118C52.4876 37.8325 52.0867 38.2179 51.8 38.665C51.5116 39.1156 51.3615 39.6409 51.3683 40.1758C51.3683 40.7802 51.5317 41.3259 51.8493 41.8069C52.17 42.2879 52.6263 42.7443 53.2153 43.1759C53.8042 43.6076 54.5195 44.0269 55.3612 44.4401C56.203 44.8563 57.1558 45.2849 58.2164 45.7228C59.6656 46.3302 60.9667 46.9777 62.1199 47.6591C63.2731 48.3436 64.2628 49.1175 65.0892 49.9808C65.9155 50.8411 66.5445 51.8247 66.9823 52.9316C67.4202 54.0385 67.6422 55.3242 67.6422 56.795C67.6422 58.8207 67.2568 60.5258 66.4921 61.901C65.745 63.2573 64.6728 64.4068 63.3717 65.2464C61.9694 66.1356 60.4151 66.7586 58.7868 67.0841C57.0417 67.4541 55.2009 67.6391 53.2677 67.6391C51.3649 67.6474 49.4656 67.4781 47.5943 67.1334C45.9754 66.8534 44.4052 66.3414 42.9323 65.6133V57.5042C45.719 59.8756 49.254 61.1861 52.9131 61.2042C53.9398 61.2042 54.8371 61.1117 55.6018 60.9267C56.3695 60.7417 57.0077 60.4827 57.5227 60.1558C58.0345 59.8228 58.4168 59.4343 58.6727 58.9842C58.9556 58.46 59.0843 57.8665 59.0439 57.2723C59.0035 56.6781 58.7957 56.1075 58.4446 55.6264C57.9865 55.0202 57.4262 54.4985 56.7888 54.0848C55.9984 53.5608 55.1662 53.1029 54.3006 52.7157C53.2746 52.2472 52.2394 51.799 51.1957 51.3714C48.3652 50.1905 46.2562 48.7444 44.8656 47.0393C43.4781 45.3342 42.7812 43.2715 42.7812 40.8573C42.7812 38.9641 43.1605 37.3392 43.919 35.9794C44.6775 34.6197 45.7073 33.5004 47.0147 32.6217C48.3974 31.7095 49.9326 31.0526 51.5472 30.6822C53.3354 30.2606 55.1674 30.0526 57.0047 30.0625ZM10.4062 30.6422H39.8922V37.3207H29.3102V67.0625H20.9327V37.3207H10.4062V30.6422Z" fill="white"/>
</g>
<defs>
<clipPath id="clip0_128_742">
<rect width="74" height="74" fill="white"/>
</clipPath>
</defs>
</svg>
