<svg width="24" height="24" viewBox="0 0 24 24" fill="none" xmlns="http://www.w3.org/2000/svg">
<path d="M6.375 3C5.28116 3.0006 4.2323 3.43538 3.45884 4.20884C2.68538 4.9823 2.2506 6.03116 2.25 7.125C2.25 9.40125 4.09875 11.25 6.375 11.25C6.98475 11.25 7.5585 11.0977 8.08575 10.8517L12 16.008V20.25H9V21.75H16.5V20.25H13.5V16.008L20.1097 7.28925L20.25 7.0785V6H10.3125C9.85875 4.26 8.238 3 6.375 3ZM6.375 4.5C7.4175 4.5 8.3175 5.13 8.71875 6H5.25V7.0785L5.391 7.2885L7.14825 9.60975C6.90021 9.6996 6.6388 9.74702 6.375 9.75C6.02916 9.75402 5.68601 9.68887 5.36572 9.55838C5.04542 9.42788 4.75444 9.23468 4.50988 8.99012C4.26532 8.74556 4.07212 8.45458 3.94162 8.13428C3.81113 7.81399 3.74598 7.47084 3.75 7.125C3.74598 6.77916 3.81113 6.43601 3.94162 6.11572C4.07212 5.79542 4.26532 5.50444 4.50988 5.25988C4.75444 5.01532 5.04542 4.82212 5.36572 4.69162C5.68601 4.56113 6.02916 4.49598 6.375 4.5ZM7.4535 7.5H18.0465L16.9215 9H10.125L11.25 10.5H15.7733L12.75 14.508L7.4535 7.5Z" fill="white"/>
</svg>
