<svg width="24" height="24" viewBox="0 0 24 24" fill="none" xmlns="http://www.w3.org/2000/svg">
<path d="M14.605 2.005L19.6 7M7.72 11.24H15.88M7.72 17.29H15.88M7.72 14.265H15.88M4.975 2.005C4.71414 2.01152 4.46616 2.11975 4.284 2.30659C4.10184 2.49342 3.99992 2.74406 4 3.005V20.555C3.99992 20.8159 4.10184 21.0666 4.284 21.2534C4.46616 21.4402 4.71414 21.5485 4.975 21.555H18.625C18.8902 21.555 19.1446 21.4496 19.3321 21.2621C19.5196 21.0746 19.625 20.8202 19.625 20.555V7H15.625C15.3641 6.99348 15.1162 6.88525 14.934 6.69841C14.7518 6.51158 14.6499 6.26094 14.65 6V2L4.975 2.005Z" stroke="white" stroke-linecap="round" stroke-linejoin="round"/>
</svg>
